<?xml version="1.0" standalone="no"?>
<!DOCTYPE svg PUBLIC "-//W3C//DTD SVG 1.1//EN" "http://www.w3.org/Graphics/SVG/1.1/DTD/svg11.dtd">
<!--Generator: Xara Designer (www.xara.com), SVG filter version: 5.0.0.2-->
<svg stroke-width="0.501" stroke-linejoin="bevel" fill-rule="evenodd" xmlns:xlink="http://www.w3.org/1999/xlink" xmlns="http://www.w3.org/2000/svg" version="1.1" overflow="visible" width="1125pt" height="750pt" viewBox="0 0 1125 750">
 <defs>
  <marker id="DefaultArrow2" markerUnits="strokeWidth" viewBox="0 0 1 1" markerWidth="1" markerHeight="1" overflow="visible" orient="auto">
   <!-- REF_ARROW_STRAIGHT (-2) -->
   <g transform="scale(0.0092592592)">
    <!-- 1/108 -->
    <path d="M -9 54 L -9 -54 L 117 0 z"/>
   </g>
  </marker>
  <marker id="DefaultArrow3" markerUnits="strokeWidth" viewBox="0 0 1 1" markerWidth="1" markerHeight="1" overflow="visible" orient="auto">
   <!-- REF_ARROW_ANGLED -->
   <g transform="scale(0.0092592592)">
    <path d="M -27 54 L -9 0 L -27 -54 L 135 0 z"/>
   </g>
  </marker>
  <marker id="DefaultArrow4" markerUnits="strokeWidth" viewBox="0 0 1 1" markerWidth="1" markerHeight="1" overflow="visible" orient="auto">
   <!-- REF_ARROW_ROUNDED -->
   <g transform="scale(0.0092592592)">
    <path d="M -9,0 L -9,-45 C -9,-51.708 2.808,-56.580 9,-54 L 117,-9 C 120.916,-7.369 126.000,-4.242 126,0 C 126,4.242 120.916,7.369 117,9 L 9,54 C 2.808,56.580 -9,51.708 -9,45 z"/>
   </g>
  </marker>
  <marker id="DefaultArrow5" markerUnits="strokeWidth" viewBox="0 0 1 1" markerWidth="1" markerHeight="1" overflow="visible" orient="auto">
   <!-- REF_ARROW_SPOT -->
   <g transform="scale(0.0092592592)">
    <path d="M -54, 0 C -54,29.807 -29.807,54 0,54 C 29.807,54 54,29.807 54,0 C 54,-29.807 29.807,-54 0,-54 C -29.807,-54 -54,-29.807 -54,0 z"/>
   </g>
  </marker>
  <marker id="DefaultArrow6" markerUnits="strokeWidth" viewBox="0 0 1 1" markerWidth="1" markerHeight="1" overflow="visible" orient="auto">
   <!-- REF_ARROW_DIAMOND -->
   <g transform="scale(0.0092592592)">
    <path d="M -63,0 L 0,63 L 63,0 L 0,-63 z"/>
   </g>
  </marker>
  <marker id="DefaultArrow7" markerUnits="strokeWidth" viewBox="0 0 1 1" markerWidth="1" markerHeight="1" overflow="visible" orient="auto">
   <!-- REF_ARROW_FEATHER -->
   <g transform="scale(0.0092592592)">
    <path d="M 18,-54 L 108,-54 L 63,0 L 108,54 L 18, 54 L -36,0 z"/>
   </g>
  </marker>
  <marker id="DefaultArrow8" markerUnits="strokeWidth" viewBox="0 0 1 1" markerWidth="1" markerHeight="1" overflow="visible" orient="auto">
   <!-- REF_ARROW_FEATHER2 -->
   <g transform="scale(0.0092592592)">
    <path d="M -36,0 L 18,-54 L 54,-54 L 18,-18 L 27,-18 L 63,-54 L 99,-54 L 63,-18 L 72,-18 L 108,-54 L 144,-54 L 90,0 L 144,54 L 108,54 L 72,18 L 63,18 L 99,54 L 63,54 L 27,18 L 18,18 L 54,54 L 18,54 z"/>
   </g>
  </marker>
  <marker id="DefaultArrow9" markerUnits="strokeWidth" viewBox="0 0 1 1" markerWidth="1" markerHeight="1" overflow="visible" orient="auto">
   <!-- REF_ARROW_HOLLOWDIAMOND -->
   <g transform="scale(0.0092592592)">
    <path d="M 0,45 L -45,0 L 0, -45 L 45, 0 z M 0, 63 L-63, 0 L 0, -63 L 63, 0 z"/>
   </g>
  </marker>
  <filter id="StainedFilter">
   <feBlend mode="multiply" in2="BackgroundImage" in="SourceGraphic" result="blend"/>
   <feComposite in="blend" in2="SourceAlpha" operator="in" result="comp"/>
  </filter>
  <filter id="BleachFilter">
   <feBlend mode="screen" in2="BackgroundImage" in="SourceGraphic" result="blend"/>
   <feComposite in="blend" in2="SourceAlpha" operator="in" result="comp"/>
  </filter>
  <filter id="InvertTransparencyBitmapFilter">
   <feComponentTransfer>
    <feFuncR type="gamma" amplitude="1.055" exponent=".416666666" offset="-0.055"/>
    <feFuncG type="gamma" amplitude="1.055" exponent=".416666666" offset="-0.055"/>
    <feFuncB type="gamma" amplitude="1.055" exponent=".416666666" offset="-0.055"/>
   </feComponentTransfer>
   <feComponentTransfer>
    <feFuncR type="linear" slope="-1" intercept="1"/>
    <feFuncG type="linear" slope="-1" intercept="1"/>
    <feFuncB type="linear" slope="-1" intercept="1"/>
    <feFuncA type="linear" slope="1" intercept="0"/>
   </feComponentTransfer>
   <feComponentTransfer>
    <feFuncR type="gamma" amplitude="1" exponent="2.4" offset="0"/>
    <feFuncG type="gamma" amplitude="1" exponent="2.4" offset="0"/>
    <feFuncB type="gamma" amplitude="1" exponent="2.4" offset="0"/>
   </feComponentTransfer>
  </filter>
 </defs>
 <g id="Document" fill="none" stroke="black" font-family="Times New Roman" font-size="16" transform="scale(1 -1)">
  <g id="Spread" transform="translate(0 -750)">
   <g id="Layer 1">
    <g id="Group" stroke-linejoin="miter" stroke="none">
     <path d="M 253.281,320.583 C 253.2,320.909 246.831,350.442 239.172,386.158 C 231.433,421.874 224.914,451.48 224.833,451.725 L 247.635,451.725 L 247.88,411.867 C 248.041,387.378 248.202,370.944 248.363,369.48 C 249.17,362.32 252.072,356.463 256.667,353.045 C 260.94,349.791 265.374,348.327 272.388,347.757 C 274.322,347.594 276.015,347.431 276.096,347.431 C 276.258,347.431 255.216,321.966 253.766,320.339 C 253.523,320.094 253.443,320.094 253.281,320.583 Z" stroke-width="0.246" fill="#176c78" fill-rule="nonzero" marker-start="none" marker-end="none"/>
     <path d="M 199.347,382.904 C 199.266,383.473 199.185,399.338 199.105,417.969 L 199.056,451.725 L 224.833,451.725 C 224.752,451.562 226.596,443.597 228.692,433.997 C 230.788,424.316 232.482,416.261 232.401,416.016 C 232.32,415.773 199.75,381.846 199.509,381.846 C 199.509,381.846 199.428,382.335 199.347,382.904 Z" stroke-width="0.246" fill="#fc1629" fill-rule="nonzero" marker-start="none" marker-end="none"/>
     <path d="M 269.647,300.487 C 246.43,302.196 226.033,313.098 212.891,330.834 C 205.636,340.516 201.283,351.58 199.751,363.785 C 199.428,366.551 199.106,382.089 199.428,381.927 C 199.67,381.764 206.039,388.274 219.583,402.511 C 232.16,415.61 232.402,415.853 232.482,416.097 C 232.482,416.26 237.077,395.189 242.64,369.398 C 248.283,343.526 252.959,321.885 253.04,321.235 C 253.201,320.501 253.362,320.176 253.524,320.176 C 253.846,320.257 267.793,336.936 274.566,345.316 C 275.371,346.292 276.015,347.106 276.097,347.106 C 276.177,347.106 280.692,337.261 286.255,325.221 L 296.332,303.335 L 295.365,303.01 C 292.461,302.114 285.367,300.894 280.53,300.569 C 278.354,300.406 271.582,300.325 269.647,300.487 Z" stroke-width="0.246" fill="#0d3f48" fill-rule="nonzero" marker-start="none" marker-end="none"/>
     <path d="M 293.993,308.705 C 292.623,311.634 290.849,315.539 289.963,317.41 L 288.43,320.746 L 301.653,336.367 C 308.908,344.991 322.855,361.426 332.61,372.977 L 350.426,393.969 L 350.345,380.381 C 350.265,366.143 350.186,365.412 349.378,360.367 C 347.766,350.605 343.896,341.085 338.173,332.868 C 333.497,326.034 327.208,319.688 320.356,314.725 C 316.084,311.634 309.714,308.136 304.555,306.102 C 302.619,305.289 296.977,303.335 296.574,303.335 C 296.492,303.335 295.364,305.776 293.993,308.705 Z" stroke-width="0.246" fill="#2f9a8e" fill-rule="nonzero" marker-start="none" marker-end="none"/>
     <path d="M 346.959,408.451 C 343.009,410.158 318.42,420.653 309.31,424.558 L 302.296,427.488 L 302.296,439.692 L 302.209,451.725 L 326.367,451.725 L 350.35,451.725 L 350.344,429.44 C 350.344,417.156 350.344,407.067 350.265,407.067 C 350.185,407.067 348.733,407.717 346.959,408.451 Z" stroke-width="0.246" fill="#0d3f48" fill-rule="nonzero" marker-start="none" marker-end="none"/>
     <path d="M 288.189,321.396 C 288.026,321.722 285.851,326.441 283.272,331.81 C 280.772,337.261 278.111,343.038 277.386,344.583 C 276.66,346.129 276.096,347.431 276.177,347.513 C 276.177,347.594 277.224,347.676 278.434,347.757 C 285.044,348.245 290.044,350.035 294.155,353.37 C 298.023,356.462 300.523,361.019 301.814,366.958 L 302.216,368.91 L 302.297,398.117 L 302.377,427.324 L 315.841,421.629 C 323.177,418.538 333.899,413.982 339.624,411.541 C 345.347,409.101 350.104,407.067 350.185,407.067 C 350.344,407.067 350.344,405.277 350.344,400.558 L 350.265,393.969 L 319.629,357.845 C 302.781,337.913 288.914,321.478 288.753,321.235 C 288.43,320.908 288.43,320.908 288.189,321.396 Z" stroke-width="0.246" fill="#e90704" fill-rule="nonzero" marker-start="none" marker-end="none"/>
     <path d="M 372.968,412.591 L 373.089,451.725 L 403.88,451.725 C 403.88,451.644 373.939,374.678 373.211,372.969 C 373.13,372.725 372.968,390.543 372.968,412.591 Z" stroke-width="0.246" fill="#e90704" fill-rule="nonzero" marker-start="none" marker-end="none"/>
     <path d="M 410.189,337.416 C 409.621,339.125 404.119,355.396 398.051,373.701 C 391.903,392.008 386.781,407.034 386.781,407.196 L 403.747,451.725 L 423.426,451.725 L 423.295,402.258 L 423.295,351.898 L 417.389,343.274 C 414.153,338.554 411.402,334.65 411.321,334.569 C 411.24,334.487 410.754,335.789 410.189,337.416 Z" stroke-width="0.246" fill="#0d3f48" fill-rule="nonzero" marker-start="none" marker-end="none"/>
     <path d="M 372.968,313.254 L 372.968,326.108 L 379.603,333.592 C 383.244,337.741 386.319,341.077 386.4,340.996 C 386.481,340.996 394.816,333.837 404.929,325.212 L 423.214,309.429 L 423.295,304.955 L 423.295,300.399 L 398.131,300.399 L 372.968,300.399 L 372.968,313.254 Z" stroke-width="0.246" fill="#fc1629" fill-rule="nonzero" marker-start="none" marker-end="none"/>
     <path d="M 417.633,314.473 C 407.762,322.934 387.371,340.427 386.805,340.833 C 386.158,341.24 386.158,341.24 377.824,331.802 L 373.131,326.432 L 373.05,349.701 C 372.969,362.555 373.05,373.051 373.212,373.051 C 373.293,373.133 376.369,380.698 380.089,390.054 C 383.73,399.329 386.805,406.895 386.805,406.814 C 386.886,406.733 389.152,399.98 391.903,391.682 C 401.206,363.613 410.674,335.707 410.997,335.056 C 411.402,334.324 410.997,333.836 419.17,345.714 L 423.135,351.49 L 423.215,340.914 C 423.296,335.138 423.296,325.7 423.215,320.006 L 423.135,309.672 L 417.633,314.473 Z" stroke-width="0.246" fill="#176c78" fill-rule="nonzero" marker-start="none" marker-end="none"/>
     <path d="M 490.817,406.978 L 464.47,425.121 L 456.159,436.999 C 451.61,443.589 446.285,451.318 445.972,451.725 L 471.428,451.725 L 496.373,451.725 L 503.442,440.01 L 510.421,429.514 L 513.871,409.744 C 515.753,398.924 517.399,389.73 517.478,389.405 C 517.478,389.08 517.478,388.835 517.399,388.835 C 517.322,388.835 505.402,396.971 490.817,406.978 Z" stroke-width="0.246" fill="#0d3f48" fill-rule="nonzero" marker-start="none" marker-end="none"/>
     <path d="M 482.505,354.095 C 482.505,354.177 485.956,359.383 490.112,365.648 L 497.717,377.119 L 496.855,378.421 C 496.307,379.153 489.015,389.812 480.546,402.016 C 471.999,414.219 465.177,424.226 465.177,424.308 C 465.255,424.308 471.214,420.321 478.506,415.276 C 501.246,399.737 516.93,388.998 517.244,388.917 C 517.4,388.835 517.558,388.917 517.558,389.08 C 517.558,389.16 516.067,398.191 514.108,408.931 C 512.225,419.751 510.736,428.619 510.814,428.619 C 510.814,428.7 513.165,425.283 515.989,421.052 C 518.812,416.821 521.164,413.243 521.243,413.161 C 521.4,412.999 521.791,413.406 522.106,413.974 L 522.811,415.033 L 526.652,399.411 C 528.771,390.868 530.495,383.79 530.339,383.709 C 530.261,383.628 521.4,378.096 510.578,371.425 C 499.835,364.672 489.092,358.082 486.739,356.617 C 484.466,355.153 482.505,354.013 482.505,354.095 Z" stroke-width="0.246" fill="#2f9a8e" fill-rule="nonzero" marker-start="none" marker-end="none"/>
     <path d="M 447.847,301.945 C 448.395,302.758 452.944,309.673 458.04,317.403 L 467.372,331.315 L 473.567,325.62 C 477.016,322.447 479.917,319.843 479.996,319.925 C 480.154,319.925 484.624,323.911 489.955,328.712 C 495.366,333.511 499.835,337.499 499.914,337.499 C 499.914,337.499 502.109,334.243 504.697,330.258 L 509.401,323.098 L 501.952,311.789 L 494.425,300.399 L 470.666,300.399 L 446.827,300.399 L 447.847,301.945 Z" stroke-width="0.246" fill="#fc1629" fill-rule="nonzero" marker-start="none" marker-end="none"/>
     <path d="M 477.801,321.877 C 473.646,325.619 467.529,331.233 467.529,331.477 C 467.529,331.721 482.427,354.176 482.506,354.094 C 482.662,354.013 484.152,354.908 497.327,363.044 C 504.697,367.601 510.97,371.506 511.284,371.75 C 511.598,371.913 511.911,371.993 511.99,371.913 C 512.146,371.75 521.243,341.729 521.243,341.24 C 521.243,341.077 518.733,337.091 515.597,332.372 C 512.461,327.652 509.794,323.585 509.638,323.422 C 509.481,323.179 509.167,323.666 507.129,326.677 C 503.129,332.86 499.992,337.498 499.914,337.498 C 499.757,337.498 500.071,337.822 489.799,328.711 C 480.86,320.738 480.076,320.087 479.917,320.087 C 479.917,320.087 478.978,320.9 477.801,321.877 Z" stroke-width="0.246" fill="#176c78" fill-rule="nonzero" marker-start="none" marker-end="none"/>
     <path d="M 530.652,327.247 C 529.869,328.467 527.438,332.128 525.241,335.465 C 521.714,340.752 521.243,341.485 520.929,342.786 C 518.42,351.166 513.009,369.065 512.382,371.018 C 512.146,371.587 512.069,372.157 512.146,372.238 C 512.225,372.238 516.303,374.843 521.321,377.933 C 529.24,382.896 530.339,383.629 530.339,384.036 C 530.339,384.361 527.673,395.67 523.674,411.942 L 522.89,415.113 L 530.104,426.016 C 534.103,432.037 537.396,436.917 537.396,436.917 C 537.475,436.755 559.352,397.947 559.43,397.785 C 559.43,397.704 556.293,392.985 552.294,387.371 L 545.159,377.12 L 546.807,374.598 C 547.746,373.214 551.745,367.113 555.823,361.092 C 559.822,354.99 563.115,349.946 563.037,349.946 C 562.959,349.783 532.455,325.05 532.299,324.969 C 532.22,324.969 531.515,325.945 530.652,327.247 Z" stroke-width="0.246" fill="#e90704" fill-rule="nonzero" marker-start="none" marker-end="none"/>
     <path d="M 554.646,406.489 C 551.902,411.29 546.962,420.157 543.591,426.097 C 540.219,432.036 537.475,436.917 537.475,436.999 C 537.475,437.08 539.513,440.172 541.944,443.833 L 547.071,451.725 L 563.118,451.725 L 597.343,451.725 L 578.25,424.307 C 568.29,410.151 560.057,398.353 559.822,398.109 C 559.587,397.703 559.509,397.866 554.646,406.489 Z" stroke-width="0.246" fill="#2f9a8e" fill-rule="nonzero" marker-start="none" marker-end="none"/>
     <path d="M 532.376,324.725 C 532.376,324.805 534.181,326.35 536.453,328.141 C 542.178,332.779 557.469,345.226 560.605,347.748 C 562.017,348.969 563.193,349.863 563.193,349.863 C 563.35,349.701 595.924,300.481 595.924,300.399 C 595.924,300.318 585.152,300.399 572.055,300.399 L 548.4,300.399 L 532.376,324.725 Z" stroke-width="0.246" fill="#176c78" fill-rule="nonzero" marker-start="none" marker-end="none"/>
     <path d="M 668.213,404.456 C 664.014,409.988 660.608,414.544 660.608,414.626 C 660.608,414.788 663.381,422.924 666.787,432.769 L 673.223,451.725 L 721.346,451.725 L 728.419,431.385 C 732.064,420.727 734.995,412.023 734.995,411.941 C 734.995,411.941 724.458,414.87 711.626,418.368 C 698.792,421.948 688.256,424.877 688.256,424.796 C 688.176,424.796 685.483,418.123 682.155,409.988 C 678.907,401.934 676.135,395.099 675.977,394.856 C 675.818,394.53 675.264,395.099 668.213,404.456 Z" stroke-width="0.246" fill="#fc1629" fill-rule="nonzero" marker-start="none" marker-end="none"/>
     <path d="M 702.357,365.648 C 699.663,373.539 697.445,379.967 697.367,380.048 C 697.287,380.048 695.385,374.597 693.088,367.925 C 690.791,361.254 688.889,355.641 688.811,355.559 C 688.731,355.396 687.464,356.454 685.641,358.243 C 676.452,366.95 652.527,389.893 652.369,390.136 C 652.291,390.218 658.945,409.906 660.53,414.381 C 660.53,414.462 661.322,413.487 662.192,412.265 C 666.391,406.489 675.026,395.343 675.581,394.856 C 675.818,394.612 675.898,394.612 676.056,394.856 C 676.135,395.018 678.908,401.69 682.156,409.743 C 685.483,417.799 688.177,424.47 688.256,424.551 C 688.414,424.714 690.632,424.062 716.537,416.984 C 726.677,414.218 734.995,411.859 735.074,411.778 C 735.074,411.697 736.976,406.408 739.114,399.981 L 743.076,388.347 L 741.175,386.313 C 736.818,381.675 707.507,351.328 707.427,351.328 C 707.348,351.328 705.051,357.757 702.357,365.648 Z" stroke-width="0.246" fill="#0d3f48" fill-rule="nonzero" marker-start="none" marker-end="none"/>
     <path d="M 621.627,300.399 C 621.627,300.399 622.663,303.327 623.85,306.825 L 625.989,313.09 L 642.547,327.409 C 651.658,335.218 659.103,341.647 659.182,341.647 C 659.182,341.565 660.133,336.439 661.322,330.175 C 662.51,323.91 663.538,318.704 663.538,318.704 C 663.618,318.622 667.975,323.015 673.283,328.385 C 678.591,333.836 682.869,338.229 682.869,338.148 C 682.948,338.148 680.017,329.687 676.452,319.354 L 669.981,300.399 L 645.868,300.399 L 621.627,300.399 Z" stroke-width="0.246" fill="#2f9a8e" fill-rule="nonzero" marker-start="none" marker-end="none"/>
     <path d="M 626.147,313.496 C 626.147,313.578 652.132,390.054 652.212,390.054 C 652.212,390.136 653.162,389.241 654.27,388.183 C 660.767,381.838 685.008,358.65 687.147,356.779 C 687.621,356.372 688.177,355.885 688.414,355.721 L 688.889,355.477 L 685.959,346.935 L 683.027,338.392 L 673.758,329.036 C 664.728,319.842 663.697,318.786 663.618,318.948 C 663.538,318.948 662.589,323.992 661.401,330.094 C 660.291,336.196 659.261,341.321 659.182,341.403 C 659.103,341.729 660.053,342.542 639.536,324.886 C 632.247,318.541 626.226,313.414 626.226,313.414 C 626.147,313.414 626.147,313.496 626.147,313.496 Z" stroke-width="0.246" fill="#e90704" fill-rule="nonzero" marker-start="none" marker-end="none"/>
     <path d="M 716.774,323.748 C 712.338,336.602 708.774,347.098 708.852,347.18 C 708.931,347.18 715.033,346.609 733.886,344.576 C 739.749,343.925 745.135,343.356 745.927,343.274 C 746.641,343.193 747.274,343.111 747.274,343.111 C 747.274,343.031 729.847,302.026 729.37,300.886 L 729.133,300.399 L 726.915,300.399 L 724.776,300.399 L 716.774,323.748 Z" stroke-width="0.246" fill="#fc1629" fill-rule="nonzero" marker-start="none" marker-end="none"/>
     <path d="M 732.777,308.616 C 740.302,326.432 747.273,342.867 747.273,343.031 C 747.273,343.111 746.878,343.274 746.481,343.274 C 745.61,343.438 712.417,346.935 710.278,347.098 L 708.695,347.261 L 707.982,349.213 L 707.347,351.166 L 725.25,369.634 C 741.095,386.069 743.153,388.102 743.312,387.778 C 743.55,387.045 772.995,300.48 772.995,300.399 C 772.995,300.399 763.117,300.399 751.156,300.399 L 729.291,300.399 L 732.777,308.616 Z" stroke-width="0.246" fill="#176c78" fill-rule="nonzero" marker-start="none" marker-end="none"/>
     <path d="M 1023.45,380.089 C 1023.37,380.251 1017.99,396.197 1011.49,415.398 L 999.112,451.835 L 1048.11,451.725 C 1048.11,451.725 1042.46,434.518 1035.89,415.153 C 1028.36,393.025 1023.85,379.844 1023.77,379.844 C 1023.69,379.844 1023.53,379.925 1023.45,380.089 Z" stroke-width="0.246" fill="#fc1629" fill-rule="nonzero" marker-start="none" marker-end="none"/>
     <path d="M 1070.73,337.538 C 1054.82,352.834 1047.61,359.994 1047.61,360.238 C 1047.69,360.482 1050.22,373.743 1053.31,389.69 C 1056.32,405.718 1058.93,418.653 1059.01,418.572 C 1059.25,418.246 1094.18,315.491 1094.02,315.409 C 1093.94,315.328 1083.48,325.334 1070.73,337.538 Z" stroke-width="0.246" fill="#e90704" fill-rule="nonzero" marker-start="none" marker-end="none"/>
     <path d="M 1051.03,300.399 C 1051.03,300.48 1044.99,318.419 1037.55,340.142 L 1023.82,379.768 L 1048.12,451.8 L 1058.85,419.06 L 1053.23,390.096 C 1050.14,374.149 1047.61,360.806 1047.61,360.481 C 1047.61,359.749 1054.58,352.834 1074.93,333.307 C 1082.14,326.392 1089.5,319.396 1091.24,317.687 L 1094.41,314.596 L 1099.16,300.399 C 1099.22,300.347 1051.84,300.399 1051.03,300.399 Z" stroke-width="0.246" fill="#176c78" fill-rule="nonzero" marker-start="none" marker-end="none"/>
     <path d="M 1013.16,350.8 C 1013.08,351.044 1010.54,359.994 1007.53,370.569 C 1004.52,381.146 1002.07,390.014 1001.99,390.178 C 1001.83,390.502 997.792,389.282 988.922,386.19 C 981.794,383.75 976.013,381.798 976.013,381.798 C 975.933,381.879 998.657,450.416 999.133,451.8 L 1023.56,379.768 L 1018.62,365.445 C 1015.93,357.633 1013.71,351.044 1013.55,350.8 C 1013.39,350.312 1013.39,350.312 1013.16,350.8 Z" stroke-width="0.246" fill="#0d3f48" fill-rule="nonzero" marker-start="none" marker-end="none"/>
     <path d="M 949.719,306.092 C 950.591,308.534 954.472,319.923 958.352,331.477 C 962.311,342.948 965.558,352.385 965.717,352.385 C 965.877,352.385 968.331,345.877 971.183,337.985 C 975.696,325.538 976.488,323.585 977.122,323.666 C 977.437,323.666 984.092,325.049 991.772,326.839 C 999.455,328.548 1005.87,329.931 1005.87,329.931 C 1005.95,329.85 1003.81,323.503 1001.2,315.775 L 995.872,300.399 L 972.149,300.399 L 947.786,300.399 L 949.719,306.092 Z" stroke-width="0.246" fill="#fc1629" fill-rule="nonzero" marker-start="none" marker-end="none"/>
     <path d="M 976.806,322.569 C 976.25,323.301 975.222,325.823 971.895,334.935 C 967.776,346.163 965.956,351.044 965.718,351.044 C 965.638,351.126 965.321,350.313 964.925,349.254 C 964.608,348.278 964.291,347.465 964.212,347.465 C 964.212,347.546 966.826,355.275 969.994,364.793 C 973.241,374.232 975.933,381.96 975.933,381.879 C 976.013,381.799 980.289,383.181 986.704,385.377 C 997.317,388.958 1000.88,390.178 1001.59,390.178 C 1001.99,390.178 1001.36,392.293 1007.14,371.71 C 1011.97,354.706 1013.08,350.881 1013.24,350.555 C 1013.31,350.474 1013.39,350.394 1013.47,350.474 C 1013.55,350.474 1013.63,350.474 1013.55,350.313 C 1013.55,350.231 1011.81,345.186 1009.75,339.166 C 1007.69,333.146 1005.95,328.345 1005.95,328.509 C 1005.87,328.671 1005.79,328.752 1005.71,328.671 C 1005.55,328.671 1005,328.509 1004.44,328.427 C 1003.81,328.345 998.822,327.206 993.199,325.905 C 984.487,323.952 979.181,322.813 977.755,322.569 C 977.517,322.487 977.28,322.487 977.202,322.406 C 977.122,322.406 976.884,322.487 976.806,322.569 Z" stroke-width="0.246" fill="#2f9a8e" fill-rule="nonzero" marker-start="none" marker-end="none"/>
     <path d="M 117.534,300.399 C 117.615,300.48 116.941,306.173 116.219,312.927 C 115.578,319.68 115.017,325.293 115.096,325.374 C 115.176,325.374 118.945,325.212 123.434,324.967 C 127.925,324.642 131.692,324.48 131.773,324.56 C 131.773,324.56 133.376,333.022 135.301,343.192 C 137.225,353.442 138.828,361.904 138.828,361.904 C 138.909,361.985 170.899,357.754 177.072,356.86 L 178.114,356.697 L 177.553,354.663 C 175.308,346.853 171.3,339.205 166.729,334.161 C 163.282,330.256 159.274,327.001 155.745,325.212 C 154.864,324.805 154.141,324.317 154.141,324.236 C 154.141,324.154 156.628,321.55 159.674,318.459 C 162.72,315.367 167.852,310.08 171.139,306.662 L 177.152,300.397 L 147.327,300.397 C 130.971,300.397 117.534,300.318 117.534,300.399 Z" stroke-width="0.246" fill="#0d3f48" fill-rule="nonzero" marker-start="none" marker-end="none"/>
     <path d="M 95.775,300.56 C 92.006,301.048 80.941,303.977 75.731,305.929 C 70.68,307.801 63.865,311.3 59.777,314.065 C 56.008,316.587 53.923,318.214 53.923,318.621 C 53.923,318.783 104.193,392.495 107.16,396.562 C 107.24,396.726 135.221,344.9 135.302,344.494 C 135.382,343.924 131.853,325.13 131.533,324.885 C 131.452,324.723 128.327,324.805 123.997,325.049 C 119.988,325.293 116.3,325.456 115.818,325.456 L 114.937,325.456 L 115.097,323.747 C 115.176,322.852 115.739,317.239 116.3,311.3 C 117.183,302.594 117.502,300.56 117.823,300.479 C 118.545,300.234 97.537,300.397 95.775,300.56 Z" stroke-width="0.246" fill="#e90704" fill-rule="nonzero" marker-start="none" marker-end="none"/>
     <path d="M 134.981,345.226 C 134.099,347.097 112.131,387.695 108.443,394.285 C 107.801,395.506 107.16,396.562 107.16,396.562 C 106.999,396.562 103.072,390.786 94.413,378.095 C 91.767,374.272 89.522,371.016 89.522,371.016 C 89.441,371.016 72.926,402.828 73.005,402.909 C 73.085,402.991 127.044,425.853 127.283,425.934 C 127.524,425.934 129.208,422.435 143.318,392.74 C 152.058,374.434 159.113,359.382 159.113,359.382 C 159.113,359.382 156.948,359.627 154.383,360.034 C 143.479,361.416 138.909,361.986 138.828,361.904 C 138.748,361.823 137.787,356.942 136.343,348.887 C 135.862,346.446 135.462,344.413 135.462,344.331 C 135.462,344.331 135.221,344.737 134.981,345.226 Z" stroke-width="0.246" fill="#176c78" fill-rule="nonzero" marker-start="none" marker-end="none"/>
     <path d="M 35.323,343.761 C 31.233,353.362 29.069,364.345 29.069,374.921 C 29.069,379.315 29.71,387.126 30.432,391.519 C 31.073,395.18 32.595,401.526 32.917,401.932 C 32.996,401.932 39.331,395.343 46.948,387.207 L 60.898,372.4 L 59.935,371.179 C 59.454,370.609 53.923,363.694 47.669,355.885 C 41.415,348.155 36.205,341.727 36.205,341.727 C 36.205,341.727 35.803,342.623 35.323,343.761 Z" stroke-width="0.246" fill="#fc1629" fill-rule="nonzero" marker-start="none" marker-end="none"/>
     <path d="M 50.716,321.307 C 45.584,326.269 40.774,332.697 37.727,338.798 L 36.284,341.646 L 47.028,354.989 C 52.96,362.311 58.493,369.227 59.376,370.284 C 60.817,372.074 60.978,372.318 60.658,372.725 C 60.177,373.295 46.786,387.614 39.171,395.587 L 33.077,402.013 L 33.398,403.072 C 34.52,406.978 37.727,413.729 40.694,418.367 C 45.825,426.34 53.922,434.64 61.699,439.846 C 72.043,446.68 85.191,450.666 100.905,451.48 L 104.112,451.643 L 103.631,450.911 C 103.39,450.504 96.334,439.52 87.996,426.584 L 72.844,402.909 L 75.169,398.353 C 76.452,395.831 80.139,388.671 83.427,382.489 C 86.634,376.305 89.279,371.098 89.279,371.016 C 89.279,370.854 82.064,360.196 73.245,347.261 C 64.425,334.406 56.489,322.69 55.526,321.225 C 54.564,319.843 53.761,318.622 53.683,318.622 C 53.603,318.622 52.239,319.843 50.716,321.307 Z" stroke-width="0.246" fill="#0d3f48" fill-rule="nonzero" marker-start="none" marker-end="none"/>
     <path d="M 137.305,405.594 C 131.452,417.879 127.925,425.119 127.603,425.608 L 127.283,425.933 C 127.123,425.933 117.903,422.028 89.922,410.15 C 74.768,403.722 73.326,403.072 73.084,402.909 C 73.005,402.827 72.925,402.827 72.925,402.827 C 72.925,402.909 75.09,406.244 77.735,410.393 C 99.703,444.646 104.112,451.561 104.192,451.642 C 104.434,451.806 110.686,451.642 113.974,451.399 C 122.071,450.829 130.009,449.364 134.819,447.574 C 135.701,447.249 142.997,443.506 145.243,442.123 C 147.166,441.066 150.133,439.195 150.213,439.113 C 150.213,439.031 139.79,403.885 139.148,401.932 C 139.148,401.769 138.747,402.42 137.305,405.594 Z" stroke-width="0.246" fill="#2f9a8e" fill-rule="nonzero" marker-start="none" marker-end="none"/>
     <path d="M 168.252,358.162 C 163.281,358.814 159.193,359.463 159.193,359.545 C 159.113,359.707 154.784,368.9 149.412,380.129 C 144.119,391.275 139.63,400.713 139.55,401.12 C 139.309,401.689 140.191,404.698 144.681,420.075 C 147.648,430.082 150.133,438.462 150.213,438.625 C 150.454,439.438 157.749,433.499 161.918,429.106 C 166.808,423.981 170.177,419.018 173.304,412.428 C 178.113,402.176 180.439,391.193 180.439,377.85 C 180.439,370.284 179.878,364.589 178.515,358.651 C 178.194,357.267 178.034,356.86 177.713,356.86 C 177.473,356.86 173.224,357.429 168.252,358.162 Z" stroke-width="0.246" fill="#fc1629" fill-rule="nonzero" marker-start="none" marker-end="none"/>
     <path d="M 839.897,394.378 L 794.855,413.579 L 794.774,432.129 L 794.858,451.725 L 847.59,451.725 L 866.644,412.928 C 876.734,392.262 885.02,375.259 885.02,375.259 C 884.938,375.177 864.672,383.801 839.897,394.378 Z" stroke-width="0.246" fill="#e90704" fill-rule="nonzero" marker-start="none" marker-end="none"/>
     <path d="M 858.684,346.296 C 857.126,350.282 840.718,393.89 840.718,393.89 C 840.718,393.89 849.988,389.985 861.229,385.184 C 884.035,375.503 884.856,375.177 884.938,375.259 C 885.02,375.341 882.477,380.548 873.78,398.365 C 870.169,405.85 867.217,412.034 867.217,412.034 C 867.298,412.115 913.407,396.738 913.57,396.493 C 913.734,396.331 922.595,360.371 922.514,360.208 C 922.514,360.208 920.135,360.045 917.263,359.963 C 914.474,359.801 910.207,359.638 907.745,359.556 C 905.367,359.394 897.572,359.069 890.434,358.743 C 883.378,358.418 877.389,358.174 877.308,358.174 C 877.226,358.093 873.041,355.407 868.037,352.071 C 862.95,348.818 858.848,346.133 858.766,346.133 C 858.766,346.133 858.684,346.214 858.684,346.296 Z" stroke-width="0.246" fill="#2f9a8e" fill-rule="nonzero" marker-start="none" marker-end="none"/>
     <path d="M 794.693,370.865 C 794.693,411.301 794.775,413.417 795.02,413.335 C 795.43,413.253 838.994,394.703 839.98,394.215 L 840.636,393.889 L 845.804,380.222 C 848.592,372.737 850.892,366.472 850.809,366.472 C 850.564,366.228 794.856,328.315 794.775,328.315 C 794.775,328.315 794.693,347.516 794.693,370.865 Z" stroke-width="0.246" fill="#176c78" fill-rule="nonzero" marker-start="none" marker-end="none"/>
     <path d="M 837.847,331.733 C 829.149,339.786 822.013,346.458 822.013,346.539 C 821.93,346.621 822.668,347.191 823.571,347.841 C 837.026,356.872 850.398,366.066 850.564,366.31 C 850.892,366.634 851.138,365.985 854.748,356.384 C 856.88,350.77 858.684,346.133 858.684,346.133 C 858.766,346.051 860.408,347.028 862.377,348.33 C 864.346,349.55 868.448,352.316 871.565,354.269 L 877.226,358.011 L 878.704,358.093 C 881.164,358.255 896.917,358.988 897.328,358.906 C 897.82,358.825 907.582,341.822 907.254,341.659 C 907.008,341.495 854.254,317.25 853.927,317.088 C 853.762,317.088 846.543,323.678 837.847,331.733 Z" stroke-width="0.246" fill="#0d3f48" fill-rule="nonzero" marker-start="none" marker-end="none"/>
     <path d="M 831.815,300.399 L 794.753,300.399 L 794.693,314.402 C 794.693,326.282 794.693,328.314 794.856,328.396 C 795.02,328.396 803.716,334.335 817.008,343.366 C 819.796,345.237 822.013,346.62 822.013,346.538 C 822.013,346.457 822.423,346.05 822.833,345.563 C 823.325,345.156 827.016,341.739 830.955,338.078 C 847.527,322.619 853.599,317.168 853.928,317.168 C 854.01,317.168 857.619,318.715 861.803,320.666 C 866.069,322.619 869.515,324.166 869.598,324.166 C 869.598,324.084 872.305,318.877 875.505,312.612 L 881.329,301.141 L 880.919,301.06 C 879.359,300.734 873.371,300.328 870.828,300.409 L 831.815,300.399 Z" stroke-width="0.246" fill="#fc1629" fill-rule="nonzero" marker-start="none" marker-end="none"/>
     <path d="M 879.606,304.965 C 878.54,306.917 875.831,312.124 873.7,316.436 L 869.679,324.247 L 870.745,324.735 C 879.031,328.396 907.254,341.576 907.254,341.821 C 907.336,342.145 902.577,350.85 899.542,355.732 L 897.654,358.906 L 898.558,358.988 C 899.132,358.988 904.709,359.312 911.028,359.556 C 917.346,359.881 922.595,360.126 922.595,360.126 C 922.678,360.208 921.694,364.193 920.546,369.076 C 919.314,373.957 918.411,378.024 918.411,378.187 C 918.494,378.269 924.566,376.154 932.113,373.469 L 945.651,368.587 L 945.568,367.041 C 945.404,363.38 943.599,355.407 941.712,350.281 C 938.02,340.03 932.359,331.081 924.647,323.271 C 916.771,315.297 908.486,309.765 898.475,305.779 C 893.471,303.826 886.826,301.955 882.806,301.466 L 881.493,301.303 L 879.606,304.965 Z" stroke-width="0.246" fill="#176c78" fill-rule="nonzero" marker-start="none" marker-end="none"/>
     <path d="M 942.122,369.97 C 935.312,372.492 919.15,378.106 918.74,378.188 C 918.33,378.188 917.837,379.815 915.95,387.382 L 913.653,396.575 L 912.259,397.063 C 911.438,397.388 901.1,400.887 889.287,404.792 C 877.472,408.779 867.627,412.115 867.381,412.196 C 867.135,412.358 847.947,451.318 847.947,451.725 C 847.947,451.97 872.018,451.969 875.382,451.725 C 894.745,450.342 911.356,441.322 924.729,427.654 C 928.42,423.911 930.555,421.307 933.426,417.077 C 941.875,404.467 946.142,390.473 946.061,375.341 C 946.061,370.865 945.896,368.75 945.486,368.75 C 945.321,368.75 943.845,369.319 942.122,369.97 Z" stroke-width="0.246" fill="#0d3f48" fill-rule="nonzero" marker-start="none" marker-end="none"/>
     <path d="M 999.239,462.185 L 1026.98,485.007 C 1037.47,480.984 1048.45,482.689 1059.43,484.415 L 999.239,462.185 Z" fill="#e90704" stroke-width="0.296" marker-start="none" marker-end="none"/>
    </g>
   </g>
  </g>
 </g>
</svg>
